<?xml version="1.0" encoding="UTF-8" standalone="no"?><!DOCTYPE svg PUBLIC "-//W3C//DTD SVG 1.1//EN" "http://www.w3.org/Graphics/SVG/1.1/DTD/svg11.dtd"><svg width="100%" height="100%" viewBox="0 0 36 36" version="1.1" xmlns="http://www.w3.org/2000/svg" xmlns:xlink="http://www.w3.org/1999/xlink" xml:space="preserve" xmlns:serif="http://www.serif.com/" style="fill-rule:evenodd;clip-rule:evenodd;stroke-linejoin:round;stroke-miterlimit:1.41421;"><path d="M30.676,30.676l-5.339,0l0,-8.354c0,-1.992 -0.034,-4.555 -2.774,-4.555c-2.778,0 -3.202,2.171 -3.202,4.412l0,8.497l-5.333,0l0,-17.179l5.118,0l0,2.348l0.073,0c0.712,-1.35 2.454,-2.775 5.052,-2.775c5.406,0 6.405,3.557 6.405,8.184l0,9.422Zm-22.669,-19.527c-1.715,0 -3.097,-1.387 -3.097,-3.096c0,-1.709 1.382,-3.096 3.097,-3.096c1.708,0 3.095,1.387 3.095,3.096c0,1.709 -1.387,3.096 -3.095,3.096Zm2.671,19.527l-5.345,0l0,-17.179l5.345,0l0,17.179Zm22.657,-30.676l-30.68,0c-1.465,0 -2.655,1.163 -2.655,2.596l0,30.807c0,1.433 1.19,2.597 2.655,2.597l30.68,0c1.468,0 2.664,-1.164 2.664,-2.597l0,-30.807c0,-1.433 -1.196,-2.596 -2.664,-2.596Z" style="fill:#fffeff;fill-rule:nonzero;"/></svg>